<svg width="36" height="36" viewBox="0 0 36 36" fill="none" xmlns="http://www.w3.org/2000/svg">
<g clip-path="url(#clip0_1_2)">
<path d="M18 35.25C27.5269 35.25 35.25 27.5269 35.25 18C35.25 8.47309 27.5269 0.75 18 0.75C8.47309 0.75 0.75 8.47309 0.75 18C0.75 27.5269 8.47309 35.25 18 35.25Z" fill="white" stroke="#2154EA" stroke-width="1.5"/>
<path d="M14.75 8H13.25C12.0074 8 11 8.9402 11 10.1V19.9C11 21.0598 12.0074 22 13.25 22H14.75C15.9926 22 17 21.0598 17 19.9V10.1C17 8.9402 15.9926 8 14.75 8Z" fill="#2154EA"/>
<path d="M22.75 10H21.25C20.0074 10 19 11.1513 19 12.5714V19.4286C19 20.8487 20.0074 22 21.25 22H22.75C23.9926 22 25 20.8487 25 19.4286V12.5714C25 11.1513 23.9926 10 22.75 10Z" fill="#4FB573"/>
<path d="M20 6.7C20 5.20883 18.8807 4 17.5 4C16.1193 4 15 5.20883 15 6.7V10.3C15 11.7912 16.1193 13 17.5 13C18.8807 13 20 11.7912 20 10.3V6.7Z" fill="#F9B233"/>
<path d="M17.875 26.75C18.9105 26.75 19.75 25.9105 19.75 24.875C19.75 23.8395 18.9105 23 17.875 23C16.8395 23 16 23.8395 16 24.875C16 25.9105 16.8395 26.75 17.875 26.75Z" fill="#2154EA"/>
<path d="M23.25 21H12.75C12.3358 21 12 21.3358 12 21.75C12 22.1642 12.3358 22.5 12.75 22.5H23.25C23.6642 22.5 24 22.1642 24 21.75C24 21.3358 23.6642 21 23.25 21Z" fill="#C9D6FA"/>
<path d="M16.3711 29.335V32.25H17.0508V33H14.5547V32.25H15.2197V29.335H14.5547V28.585H17.0508V29.335H16.3711ZM20.5869 30.3604V29.335H19.9014V32.25H20.5605V33H18.085V32.25H18.7559V29.335H18.085V30.3604H17.335V28.585H21.3311V30.3604H20.5869Z" fill="#2154EA"/>
</g>
<defs>
<clipPath id="clip0_1_2">
<rect width="36" height="36" fill="white"/>
</clipPath>
</defs>
</svg>
